# xmcd
#
# Track frame offsets: 
#        150
#        6427
#        18681
#        34350
#        46412
#        67442
#        82932
#        109505
#        125249
#        142888
#        154167
#        168580
#        186702
#        201232
#        226125
#        241282
#
# Disc length: 3428 seconds
#
# Revision: 2
# Processed by: cddbd v1.5.2PL0 Copyright (c) Steve Scherf et al.
# Submitted via: ExactAudioCopy v0.99pb5
#
DISCID=ea0d6210
DTITLE=Blackalicious - Imani Vol. 1
DYEAR=2015
DGENRE=Hip-Hop
TTITLE0=Faith featuring Amde of The Watts Prophets
TTITLE1=Blacka
TTITLE2=Ashes to Ashes
TTITLE3=On Fire Tonight,featuring Myron of Myron and E
TTITLE4=Escape
TTITLE5=The Sun featuring Imani Coppola
TTITLE6=That Night featuring Vursatyl and Jumbo of Lifesavas
TTITLE7=Inspired By featuring Bosko
TTITLE8=We Did It Again featuring Danielle Flax
TTITLE9=I Like the Way You Talk
TTITLE10=Twist of Time
TTITLE11=The Blow Up
TTITLE12=Love's Gonna Save the Day featuring Fantastic Negrito
TTITLE13=Alpha and Omega featuring Lateef, Lyrics Born, Monophonics and 
TTITLE13=DJ D Sharp
TTITLE14=The Hour Glass
TTITLE15=Imani featuring Zap Mama
EXTD=
EXTT0=
EXTT1=
EXTT2=
EXTT3=
EXTT4=
EXTT5=
EXTT6=
EXTT7=
EXTT8=
EXTT9=
EXTT10=
EXTT11=
EXTT12=
EXTT13=
EXTT14=
EXTT15=
PLAYORDER=
